<?xml version="1.0" encoding="UTF-8" standalone="no"?>
<svg
   xmlns:dc="http://purl.org/dc/elements/1.1/"
   xmlns:cc="http://creativecommons.org/ns#"
   xmlns:rdf="http://www.w3.org/1999/02/22-rdf-syntax-ns#"
   xmlns:svg="http://www.w3.org/2000/svg"
   xmlns="http://www.w3.org/2000/svg"
   id="svg8"
   version="1.1"
   viewBox="0 0 256 256"
   height="256mm"
   width="256mm">
  <defs
     id="defs2">
    <rect
       id="rect902"
       height="27.288432"
       width="150.64797"
       y="217.9364"
       x="61.233481" />
    <rect
       id="rect896"
       height="45.627798"
       width="159.5027"
       y="174.03423"
       x="46.886281" />
    <clipPath
       id="clipPath865"
       clipPathUnits="userSpaceOnUse">
      <rect
         transform="rotate(-30)"
         ry="9.0373898"
         y="85.242905"
         x="-76.507874"
         height="18.07478"
         width="137.45915"
         id="rect867"
         style="fill:#0ce4b9;fill-opacity:1;stroke-width:4" />
    </clipPath>
    <clipPath
       id="clipPath884"
       clipPathUnits="userSpaceOnUse">
      <rect
         style="fill:#00e0f5;fill-opacity:1;stroke-width:4"
         id="rect886"
         width="137.45915"
         height="18.07478"
         x="53.847912"
         y="210.61795"
         ry="9.0373898"
         transform="rotate(-30)" />
    </clipPath>
  </defs>
  <metadata
     id="metadata5">
    <rdf:RDF>
      <cc:Work
         rdf:about="">
        <dc:format>image/svg+xml</dc:format>
        <dc:type
           rdf:resource="http://purl.org/dc/dcmitype/StillImage" />
        <dc:title></dc:title>
      </cc:Work>
    </rdf:RDF>
  </metadata>
  <circle
     r="128"
     cy="128"
     cx="128"
     id="path833-9-2"
     style="fill:#e5e6ea;fill-opacity:1;stroke-width:6.29724" />
  <g
     style="font-style:normal;font-variant:normal;font-weight:800;font-stretch:normal;font-size:10.5833px;line-height:1.25;font-family:Cantarell;-inkscape-font-specification:'Cantarell, Ultra-Bold';font-variant-ligatures:normal;font-variant-caps:normal;font-variant-numeric:normal;font-variant-east-asian:normal;white-space:pre;shape-inside:url(#rect896);fill:#004049;fill-opacity:1;stroke:none"
     id="text894"
     transform="matrix(3.4066305,0,0,3.4066305,-121.6608,-432.44614)"
     aria-label="FOUNDER">
    <path
       id="path1132"
       style="font-style:normal;font-variant:normal;font-weight:800;font-stretch:normal;font-size:10.5833px;font-family:Cantarell;-inkscape-font-specification:'Cantarell, Ultra-Bold';font-variant-ligatures:normal;font-variant-caps:normal;font-variant-numeric:normal;font-variant-east-asian:normal;fill:#004049;fill-opacity:1"
       d="m 47.638133,183.53909 h 1.862661 v -2.71991 h 2.995074 v -1.60866 h -2.995074 v -1.40758 h 3.376072 v -1.60866 h -5.238733 z" />
    <path
       id="path1134"
       style="font-style:normal;font-variant:normal;font-weight:800;font-stretch:normal;font-size:10.5833px;font-family:Cantarell;-inkscape-font-specification:'Cantarell, Ultra-Bold';font-variant-ligatures:normal;font-variant-caps:normal;font-variant-numeric:normal;font-variant-east-asian:normal;fill:#004049;fill-opacity:1"
       d="m 57.247762,183.64493 c 2.296576,0 3.820571,-1.524 3.820571,-3.82058 0,-2.24366 -1.481662,-3.7359 -3.704155,-3.7359 -2.275409,0 -3.788821,1.53458 -3.788821,3.84174 0,2.23307 1.471079,3.71474 3.672405,3.71474 z m 0.116416,-1.60867 c -1.132413,0 -1.86266,-0.86783 -1.86266,-2.21191 0,-1.29116 0.687914,-2.12724 1.746244,-2.12724 1.15358,0 1.894411,0.87841 1.894411,2.23308 0,1.28058 -0.698498,2.10607 -1.777995,2.10607 z" />
    <path
       id="path1136"
       style="font-style:normal;font-variant:normal;font-weight:800;font-stretch:normal;font-size:10.5833px;font-family:Cantarell;-inkscape-font-specification:'Cantarell, Ultra-Bold';font-variant-ligatures:normal;font-variant-caps:normal;font-variant-numeric:normal;font-variant-east-asian:normal;fill:#004049;fill-opacity:1"
       d="m 65.185233,183.64493 c 2.000243,0 3.291406,-1.23825 3.291406,-3.14324 v -4.30741 h -1.809744 v 4.51907 c 0,0.84667 -0.476249,1.34408 -1.280579,1.34408 -0.941914,0 -1.492246,-0.58208 -1.492246,-1.55574 v -4.30741 h -1.830911 v 4.41324 c 0,1.89441 1.174747,3.03741 3.122074,3.03741 z" />
    <path
       id="path1138"
       style="font-style:normal;font-variant:normal;font-weight:800;font-stretch:normal;font-size:10.5833px;font-family:Cantarell;-inkscape-font-specification:'Cantarell, Ultra-Bold';font-variant-ligatures:normal;font-variant-caps:normal;font-variant-numeric:normal;font-variant-east-asian:normal;fill:#004049;fill-opacity:1"
       d="m 69.831294,183.53909 h 1.735661 v -4.82598 l 3.04799,4.82598 h 2.053161 v -7.34481 h -1.756828 l -0.02117,4.78365 -2.963324,-4.78365 h -2.095493 z" />
    <path
       id="path1140"
       style="font-style:normal;font-variant:normal;font-weight:800;font-stretch:normal;font-size:10.5833px;font-family:Cantarell;-inkscape-font-specification:'Cantarell, Ultra-Bold';font-variant-ligatures:normal;font-variant-caps:normal;font-variant-numeric:normal;font-variant-east-asian:normal;fill:#004049;fill-opacity:1"
       d="m 78.170915,183.53909 h 2.614075 c 2.518825,0 4.180403,-1.51341 4.180403,-3.82057 0,-2.21191 -1.502829,-3.52424 -4.04282,-3.52424 h -2.751658 z m 1.799161,-1.57691 v -4.19099 h 0.846664 c 1.407578,0 2.243659,0.80433 2.243659,2.159 0,1.31233 -0.730248,2.03199 -2.063743,2.03199 z" />
    <path
       id="path1142"
       style="font-style:normal;font-variant:normal;font-weight:800;font-stretch:normal;font-size:10.5833px;font-family:Cantarell;-inkscape-font-specification:'Cantarell, Ultra-Bold';font-variant-ligatures:normal;font-variant-caps:normal;font-variant-numeric:normal;font-variant-east-asian:normal;fill:#004049;fill-opacity:1"
       d="m 86.108371,183.53909 h 5.270483 v -1.60866 h -3.439572 v -1.31233 h 3.14324 v -1.60866 h -3.14324 v -1.2065 h 3.439572 v -1.60866 h -5.270483 z" />
    <path
       id="path1144"
       style="font-style:normal;font-variant:normal;font-weight:800;font-stretch:normal;font-size:10.5833px;font-family:Cantarell;-inkscape-font-specification:'Cantarell, Ultra-Bold';font-variant-ligatures:normal;font-variant-caps:normal;font-variant-numeric:normal;font-variant-east-asian:normal;fill:#004049;fill-opacity:1"
       d="m 92.659427,183.53909 h 1.830911 v -2.50824 h 0.814914 l 1.428745,2.50824 h 2.201326 l -1.83091,-2.88924 c 0.825497,-0.4445 1.322912,-1.23824 1.322912,-2.23307 0,-1.41817 -1.015997,-2.2225 -2.741075,-2.2225 h -3.026823 z m 1.830911,-4.06398 v -1.68275 h 0.941913 c 0.687915,0 1.09008,0.32808 1.09008,0.87841 0,0.49742 -0.296332,0.80434 -0.836081,0.80434 z" />
  </g>
  <g
     style="font-style:normal;font-variant:normal;font-weight:800;font-stretch:normal;font-size:10.5833px;line-height:1.25;font-family:Cantarell;-inkscape-font-specification:'Cantarell, Ultra-Bold';font-variant-ligatures:normal;font-variant-caps:normal;font-variant-numeric:normal;font-variant-east-asian:normal;white-space:pre;shape-inside:url(#rect902);fill:#004049;fill-opacity:1;stroke:none"
     id="text900"
     transform="matrix(2.4187677,0,0,2.4187677,-76.031657,-324.66663)"
     aria-label="chevro.fr">
    <path
       id="path1147"
       style="font-style:normal;font-variant:normal;font-weight:800;font-stretch:normal;font-size:10.5833px;font-family:Cantarell;-inkscape-font-specification:'Cantarell, Ultra-Bold';font-variant-ligatures:normal;font-variant-caps:normal;font-variant-numeric:normal;font-variant-east-asian:normal;fill:#004049;fill-opacity:1"
       d="m 64.398782,227.54532 c 0.634998,0 1.174746,-0.127 1.714494,-0.40217 l -0.402165,-1.23825 c -0.306916,0.127 -0.624415,0.17992 -0.920747,0.17992 -0.857248,0 -1.344079,-0.45508 -1.344079,-1.27 0,-0.73024 0.391582,-1.14299 1.174746,-1.14299 0.349249,0 0.772581,0.0741 1.09008,0.17991 l 0.370415,-1.41816 c -0.423332,-0.17991 -1.005413,-0.28575 -1.555745,-0.28575 -1.799161,0 -2.942157,1.0795 -2.942157,2.79399 0,1.64042 1.047747,2.6035 2.815158,2.6035 z" />
    <path
       id="path1149"
       style="font-style:normal;font-variant:normal;font-weight:800;font-stretch:normal;font-size:10.5833px;font-family:Cantarell;-inkscape-font-specification:'Cantarell, Ultra-Bold';font-variant-ligatures:normal;font-variant-caps:normal;font-variant-numeric:normal;font-variant-east-asian:normal;fill:#004049;fill-opacity:1"
       d="m 70.272511,227.43948 h 1.830911 v -3.11149 c 0,-1.34408 -0.709082,-2.13782 -1.894411,-2.13782 -0.539748,0 -1.02658,0.16933 -1.407579,0.53974 v -3.11149 h -1.799161 v 7.82106 h 1.799161 v -3.3549 c 0.211666,-0.22225 0.444499,-0.30692 0.719664,-0.30692 0.529165,0 0.751415,0.27517 0.751415,0.85725 z" />
    <path
       id="path1151"
       style="font-style:normal;font-variant:normal;font-weight:800;font-stretch:normal;font-size:10.5833px;font-family:Cantarell;-inkscape-font-specification:'Cantarell, Ultra-Bold';font-variant-ligatures:normal;font-variant-caps:normal;font-variant-numeric:normal;font-variant-east-asian:normal;fill:#004049;fill-opacity:1"
       d="m 76.019235,227.54532 c 0.634998,0 1.301746,-0.11642 1.957911,-0.33867 L 77.57498,225.9684 c -0.433915,0.14817 -0.846664,0.22225 -1.269996,0.22225 -0.77258,0 -1.238246,-0.254 -1.418162,-0.83608 h 3.11149 c 0.04233,-0.26458 0.07408,-0.52916 0.07408,-0.80433 0,-1.51341 -0.86783,-2.40241 -2.349492,-2.40241 -1.640412,0 -2.730491,1.0795 -2.730491,2.70933 0,1.67216 1.142996,2.68816 3.026823,2.68816 z m -1.195913,-3.19616 c 0.0635,-0.5715 0.328083,-0.85725 0.772581,-0.85725 0.476249,0 0.751415,0.30692 0.751415,0.85725 z" />
    <path
       id="path1153"
       style="font-style:normal;font-variant:normal;font-weight:800;font-stretch:normal;font-size:10.5833px;font-family:Cantarell;-inkscape-font-specification:'Cantarell, Ultra-Bold';font-variant-ligatures:normal;font-variant-caps:normal;font-variant-numeric:normal;font-variant-east-asian:normal;fill:#004049;fill-opacity:1"
       d="m 80.358382,227.43948 h 1.830911 l 2.010827,-5.18581 h -1.841494 l -1.047747,3.45015 -0.93133,-3.45015 h -2.010827 z" />
    <path
       id="path1155"
       style="font-style:normal;font-variant:normal;font-weight:800;font-stretch:normal;font-size:10.5833px;font-family:Cantarell;-inkscape-font-specification:'Cantarell, Ultra-Bold';font-variant-ligatures:normal;font-variant-caps:normal;font-variant-numeric:normal;font-variant-east-asian:normal;fill:#004049;fill-opacity:1"
       d="m 84.803353,227.43948 h 1.830911 v -3.04799 c 0.275165,-0.29633 0.634998,-0.46566 1.02658,-0.46566 0.232832,0 0.529165,0.0529 0.740831,0.127 l 0.412748,-1.67216 c -0.211666,-0.10584 -0.529165,-0.16934 -0.846664,-0.16934 -0.613831,0 -1.195913,0.30692 -1.576911,0.84667 l -0.15875,-0.80433 h -1.428745 z" />
    <path
       id="path1157"
       style="font-style:normal;font-variant:normal;font-weight:800;font-stretch:normal;font-size:10.5833px;font-family:Cantarell;-inkscape-font-specification:'Cantarell, Ultra-Bold';font-variant-ligatures:normal;font-variant-caps:normal;font-variant-numeric:normal;font-variant-east-asian:normal;fill:#004049;fill-opacity:1"
       d="m 91.88358,227.54532 c 1.735661,0 2.899824,-1.12183 2.899824,-2.794 0,-1.57691 -1.05833,-2.60349 -2.709325,-2.60349 -1.746245,0 -2.910408,1.12183 -2.910408,2.80458 0,1.56633 1.05833,2.59291 2.719909,2.59291 z m 0.116416,-1.524 c -0.613832,0 -0.973664,-0.4445 -0.973664,-1.18533 0,-0.73025 0.338666,-1.16416 0.920747,-1.16416 0.613832,0 0.973664,0.45508 0.973664,1.22766 0,0.70908 -0.338666,1.12183 -0.920747,1.12183 z" />
    <path
       id="path1159"
       style="font-style:normal;font-variant:normal;font-weight:800;font-stretch:normal;font-size:10.5833px;font-family:Cantarell;-inkscape-font-specification:'Cantarell, Ultra-Bold';font-variant-ligatures:normal;font-variant-caps:normal;font-variant-numeric:normal;font-variant-east-asian:normal;fill:#004049;fill-opacity:1"
       d="m 96.646045,227.54532 c 0.677331,0 1.12183,-0.48684 1.12183,-1.12183 0,-0.67734 -0.444499,-1.16417 -1.12183,-1.16417 -0.677331,0 -1.12183,0.48683 -1.12183,1.16417 0,0.63499 0.444499,1.12183 1.12183,1.12183 z" />
    <path
       id="path1161"
       style="font-style:normal;font-variant:normal;font-weight:800;font-stretch:normal;font-size:10.5833px;font-family:Cantarell;-inkscape-font-specification:'Cantarell, Ultra-Bold';font-variant-ligatures:normal;font-variant-caps:normal;font-variant-numeric:normal;font-variant-east-asian:normal;fill:#004049;fill-opacity:1"
       d="m 99.164864,227.43948 h 1.735666 v -3.75707 h 1.37582 v -1.42874 h -1.37582 v -0.52917 c 0,-0.4445 0.29633,-0.70908 0.82549,-0.70908 0.254,0 0.55033,0.0635 0.68792,0.13758 l 0.35983,-1.30174 c -0.32808,-0.21167 -0.81491,-0.33867 -1.31233,-0.33867 -1.37583,0 -2.296576,0.93133 -2.296576,2.33891 v 0.40217 h -0.825497 v 1.42874 h 0.825497 z" />
    <path
       id="path1163"
       style="font-style:normal;font-variant:normal;font-weight:800;font-stretch:normal;font-size:10.5833px;font-family:Cantarell;-inkscape-font-specification:'Cantarell, Ultra-Bold';font-variant-ligatures:normal;font-variant-caps:normal;font-variant-numeric:normal;font-variant-east-asian:normal;fill:#004049;fill-opacity:1"
       d="m 103.11242,227.43948 h 1.83091 v -3.04799 c 0.27516,-0.29633 0.635,-0.46566 1.02658,-0.46566 0.23283,0 0.52916,0.0529 0.74083,0.127 l 0.41275,-1.67216 c -0.21167,-0.10584 -0.52917,-0.16934 -0.84667,-0.16934 -0.61383,0 -1.19591,0.30692 -1.57691,0.84667 l -0.15875,-0.80433 h -1.42874 z" />
  </g>
  <g
     id="g1552"
     transform="matrix(1.1265099,0,0,1.1265099,188.46506,-67.782803)"
     style="fill:#004049;fill-opacity:1">
    <g
       id="g1002"
       transform="matrix(0.68874948,0,0,0.68874948,-107.30298,55.223029)">
      <path
         style="font-style:normal;font-variant:normal;font-weight:normal;font-stretch:normal;font-size:medium;line-height:normal;font-family:sans-serif;font-variant-ligatures:normal;font-variant-position:normal;font-variant-caps:normal;font-variant-numeric:normal;font-variant-alternates:normal;font-variant-east-asian:normal;font-feature-settings:normal;font-variation-settings:normal;text-indent:0;text-align:start;text-decoration:none;text-decoration-line:none;text-decoration-style:solid;letter-spacing:normal;word-spacing:normal;text-transform:none;writing-mode:lr-tb;direction:ltr;text-orientation:mixed;dominant-baseline:auto;baseline-shift:baseline;text-anchor:start;white-space:normal;shape-padding:0;shape-margin:0;inline-size:0;clip-rule:nonzero;display:inline;overflow:visible;visibility:visible;opacity:1;isolation:auto;mix-blend-mode:normal;color-interpolation:sRGB;color-interpolation-filters:linearRGB;vector-effect:none;fill:#004049;fill-opacity:1;stroke:none;stroke-linecap:butt;stroke-linejoin:miter;stroke-miterlimit:0;stroke-dasharray:none;stroke-dashoffset:0;stroke-opacity:1;color-rendering:auto;image-rendering:auto;shape-rendering:auto;text-rendering:auto;enable-background:accumulate;stop-opacity:1"
         d="M 94.083984,47.451172 C 71.189298,47.826085 38.991665,62.278015 -8.3847656,106.7793 L 3.7773438,119.72656 C 56.134328,70.546983 86.093694,63.291241 100.48242,65.638672 c 14.38873,2.347431 17.39844,12.845703 17.39844,12.845703 l 16.74609,-5.927734 c 0,0 -8.01852,-20.655686 -31.2832,-24.451172 -2.90808,-0.474436 -5.989096,-0.707856 -9.259766,-0.654297 z"
         id="path1830" />
      <path
         style="font-style:normal;font-variant:normal;font-weight:normal;font-stretch:normal;font-size:medium;line-height:normal;font-family:sans-serif;font-variant-ligatures:normal;font-variant-position:normal;font-variant-caps:normal;font-variant-numeric:normal;font-variant-alternates:normal;font-variant-east-asian:normal;font-feature-settings:normal;font-variation-settings:normal;text-indent:0;text-align:start;text-decoration:none;text-decoration-line:none;text-decoration-style:solid;letter-spacing:normal;word-spacing:normal;text-transform:none;writing-mode:lr-tb;direction:ltr;text-orientation:mixed;dominant-baseline:auto;baseline-shift:baseline;text-anchor:start;white-space:normal;shape-padding:0;shape-margin:0;inline-size:0;clip-rule:nonzero;display:inline;overflow:visible;visibility:visible;opacity:1;isolation:auto;mix-blend-mode:normal;color-interpolation:sRGB;color-interpolation-filters:linearRGB;vector-effect:none;fill:#004049;fill-opacity:1;stroke:none;stroke-linecap:butt;stroke-linejoin:miter;stroke-miterlimit:0;stroke-dasharray:none;stroke-dashoffset:0;stroke-opacity:1;color-rendering:auto;image-rendering:auto;shape-rendering:auto;text-rendering:auto;enable-background:accumulate;stop-opacity:1"
         d="m 90.152344,69.398438 c -7.439273,0.251096 -13.00586,2.527343 -13.00586,2.527343 l 6.558594,16.509766 c 0,0 11.284995,-4.229159 17.638672,2.644531 L 114.39062,79.021484 C 106.90374,70.921839 97.591617,69.147341 90.152344,69.398438 Z"
         id="path1834" />
      <path
         style="font-style:normal;font-variant:normal;font-weight:normal;font-stretch:normal;font-size:medium;line-height:normal;font-family:sans-serif;font-variant-ligatures:normal;font-variant-position:normal;font-variant-caps:normal;font-variant-numeric:normal;font-variant-alternates:normal;font-variant-east-asian:normal;font-feature-settings:normal;font-variation-settings:normal;text-indent:0;text-align:start;text-decoration:none;text-decoration-line:none;text-decoration-style:solid;letter-spacing:normal;word-spacing:normal;text-transform:none;writing-mode:lr-tb;direction:ltr;text-orientation:mixed;dominant-baseline:auto;baseline-shift:baseline;text-anchor:start;white-space:normal;shape-padding:0;shape-margin:0;inline-size:0;clip-rule:nonzero;display:inline;overflow:visible;visibility:visible;opacity:1;isolation:auto;mix-blend-mode:normal;color-interpolation:sRGB;color-interpolation-filters:linearRGB;vector-effect:none;fill:#004049;fill-opacity:1;stroke:none;stroke-linecap:butt;stroke-linejoin:miter;stroke-miterlimit:0;stroke-dasharray:none;stroke-dashoffset:0;stroke-opacity:1;color-rendering:auto;image-rendering:auto;shape-rendering:auto;text-rendering:auto;enable-background:accumulate;stop-opacity:1"
         d="M 56.720703,98.027344 C 25.980682,103.18096 5.59375,122.16211 5.59375,122.16211 l 12.035156,13.06641 c 0,0 17.036986,-15.48969 42.029297,-19.67969 z"
         id="path1836" />
      <path
         style="font-style:normal;font-variant:normal;font-weight:normal;font-stretch:normal;font-size:medium;line-height:normal;font-family:sans-serif;font-variant-ligatures:normal;font-variant-position:normal;font-variant-caps:normal;font-variant-numeric:normal;font-variant-alternates:normal;font-variant-east-asian:normal;font-feature-settings:normal;font-variation-settings:normal;text-indent:0;text-align:start;text-decoration:none;text-decoration-line:none;text-decoration-style:solid;letter-spacing:normal;word-spacing:normal;text-transform:none;writing-mode:lr-tb;direction:ltr;text-orientation:mixed;dominant-baseline:auto;baseline-shift:baseline;text-anchor:start;white-space:normal;shape-padding:0;shape-margin:0;inline-size:0;clip-rule:nonzero;display:inline;overflow:visible;visibility:visible;opacity:1;isolation:auto;mix-blend-mode:normal;color-interpolation:sRGB;color-interpolation-filters:linearRGB;vector-effect:none;fill:#004049;fill-opacity:1;stroke:none;stroke-linecap:butt;stroke-linejoin:miter;stroke-miterlimit:0;stroke-dasharray:none;stroke-dashoffset:0;stroke-opacity:1;color-rendering:auto;image-rendering:auto;shape-rendering:auto;text-rendering:auto;enable-background:accumulate;stop-opacity:1"
         d="m 74.369141,122.03906 -17.69336,1.60156 c 1.361462,15.03597 6.750255,26.43043 14.900391,34.05274 8.150136,7.62231 18.276993,11.2808 28.355469,13.6875 20.156949,4.81341 41.108249,5.68096 54.357419,14.47266 l 9.82227,-14.80274 c -19.26961,-12.78664 -42.71956,-12.81012 -60.05274,-16.94922 -8.666582,-2.06955 -15.557459,-4.90285 -20.347652,-9.38281 -4.790194,-4.47996 -8.266042,-10.79905 -9.341797,-22.67969 z"
         id="path1838" />
      <path
         style="font-style:normal;font-variant:normal;font-weight:normal;font-stretch:normal;font-size:medium;line-height:normal;font-family:sans-serif;font-variant-ligatures:normal;font-variant-position:normal;font-variant-caps:normal;font-variant-numeric:normal;font-variant-alternates:normal;font-variant-east-asian:normal;font-feature-settings:normal;font-variation-settings:normal;text-indent:0;text-align:start;text-decoration:none;text-decoration-line:none;text-decoration-style:solid;letter-spacing:normal;word-spacing:normal;text-transform:none;writing-mode:lr-tb;direction:ltr;text-orientation:mixed;dominant-baseline:auto;baseline-shift:baseline;text-anchor:start;white-space:normal;shape-padding:0;shape-margin:0;inline-size:0;clip-rule:nonzero;display:inline;overflow:visible;visibility:visible;opacity:1;isolation:auto;mix-blend-mode:normal;color-interpolation:sRGB;color-interpolation-filters:linearRGB;vector-effect:none;fill:#004049;fill-opacity:1;stroke:none;stroke-linecap:butt;stroke-linejoin:miter;stroke-miterlimit:0;stroke-dasharray:none;stroke-dashoffset:0;stroke-opacity:1;color-rendering:auto;image-rendering:auto;shape-rendering:auto;text-rendering:auto;enable-background:accumulate;stop-opacity:1"
         d="m 51.337891,133.7832 -15.646485,8.41407 c 6.986657,12.99394 10.851685,28.61476 4.81836,50.58398 l 17.130859,4.70313 c 7.176741,-26.13276 2.365297,-47.58018 -6.302734,-63.70118 z"
         id="path1842" />
    </g>
  </g>
</svg>
